<?xml version="1.0" encoding="UTF-8"?>
<svg width="14px" height="19px" viewBox="0 0 14 19" version="1.1" xmlns="http://www.w3.org/2000/svg" xmlns:xlink="http://www.w3.org/1999/xlink">
    <title>btc-brands</title>
    <defs>
        <filter color-interpolation-filters="auto" id="filter-1">
            <feColorMatrix in="SourceGraphic" type="matrix" values="0 0 0 0 0.968627 0 0 0 0 0.576471 0 0 0 0 0.101961 0 0 0 1.000000 0"></feColorMatrix>
        </filter>
    </defs>
    <g id="Conception" stroke="none" stroke-width="1" fill="none" fill-rule="evenodd">
        <g id="btc-brands" transform="translate(-46.000000, -326.000000)" filter="url(#filter-1)">
            <g transform="translate(46.000000, 326.000000)">
                <path d="M11.3956995,9.00414453 C12.4269054,8.47793359 13.0831511,7.54240625 12.9307944,5.98715234 C12.7315444,3.85889258 10.980019,3.14557617 8.65982425,2.94681836 L8.65982425,0 L6.85519527,0 L6.85519527,2.86495508 C6.38644839,2.86495508 5.90598749,2.87664453 5.42556378,2.88833398 L5.42556378,0 L3.6209348,0 L3.6209348,2.94681836 C2.95743764,2.96682031 2.18468397,2.95706055 0,2.94681836 L0,4.86455664 C1.42479712,4.83939648 2.17237494,4.7480332 2.34366,5.65969922 L2.34366,13.7283535 C2.23488692,14.4516895 1.65480104,14.3475234 0.363246289,14.3247383 L0,16.4646875 C3.2904134,16.4646875 3.62097199,16.476377 3.62097199,16.476377 L3.62097199,19 L5.42560097,19 L5.42560097,16.5114453 C5.9177387,16.5231348 6.3981996,16.5231348 6.85523245,16.5231348 L6.85523245,19 L8.65986144,19 L8.65986144,16.476377 C11.6831579,16.3126504 13.7042174,15.5525762 13.9737515,12.711 C14.1846411,10.4307773 13.1065419,9.41338672 11.3956995,9.00414453 L11.3956995,9.00414453 Z M5.46074304,4.99317773 C6.48023495,4.99317773 9.66760214,4.67748828 9.66760214,6.79402148 C9.66760214,8.81703906 6.48027214,8.58313867 5.46074304,8.58313867 L5.46074304,4.99317773 L5.46074304,4.99317773 Z M5.46074304,14.3364277 L5.46074304,10.3839824 C6.67944773,10.3839824 10.4113868,10.044877 10.4113868,12.3602422 C10.4113868,14.593707 6.67944773,14.3364277 5.46074304,14.3364277 Z" id="Shape" fill="#000000" fill-rule="nonzero"></path>
            </g>
        </g>
    </g>
</svg>