<?xml version="1.0" encoding="UTF-8"?>
<svg width="274px" height="270px" viewBox="0 0 274 270" version="1.1" xmlns="http://www.w3.org/2000/svg" xmlns:xlink="http://www.w3.org/1999/xlink">
    <title>Group 2</title>
    <defs>
        <filter color-interpolation-filters="auto" id="filter-1">
            <feColorMatrix in="SourceGraphic" type="matrix" values="0 0 0 0 0.345098 0 0 0 0 0.682353 0 0 0 0 0.823529 0 0 0 1.000000 0"></feColorMatrix>
        </filter>
        <filter color-interpolation-filters="auto" id="filter-2">
            <feColorMatrix in="SourceGraphic" type="matrix" values="0 0 0 0 0.345098 0 0 0 0 0.682353 0 0 0 0 0.823529 0 0 0 1.000000 0"></feColorMatrix>
        </filter>
        <filter color-interpolation-filters="auto" id="filter-3">
            <feColorMatrix in="SourceGraphic" type="matrix" values="0 0 0 0 0.329412 0 0 0 0 0.364706 0 0 0 0 0.835294 0 0 0 1.000000 0"></feColorMatrix>
        </filter>
    </defs>
    <g id="Conception" stroke="none" stroke-width="1" fill="none" fill-rule="evenodd">
        <g id="iPhone-12" transform="translate(-58.000000, -362.000000)">
            <g id="Group-2" transform="translate(58.000000, 362.000000)">
                <g filter="url(#filter-1)" id="envelope-open-text-solid">
                    <g transform="translate(168.108340, 0.000000)">
                        <path d="M40.0699516,46.4625388 L65.6391601,46.4625388 C67.0518589,46.4625388 68.196081,45.3183236 68.196081,43.9056333 L68.196081,41.3487279 C68.196081,39.9360376 67.0518589,38.7918225 65.6391601,38.7918225 L40.0699516,38.7918225 C38.6572528,38.7918225 37.5130308,39.9360376 37.5130308,41.3487279 L37.5130308,43.9056333 C37.5130308,45.3183236 38.6572528,46.4625388 40.0699516,46.4625388 Z M37.5130308,59.247066 C37.5130308,60.6597563 38.6572528,61.8039714 40.0699516,61.8039714 L65.6391601,61.8039714 C67.0518589,61.8039714 68.196081,60.6597563 68.196081,59.247066 L68.196081,56.6901606 C68.196081,55.2774703 67.0518589,54.1332551 65.6391601,54.1332551 L40.0699516,54.1332551 C38.6572528,54.1332551 37.5130308,55.2774703 37.5130308,56.6901606 L37.5130308,59.247066 Z M52.8545559,78.6044383 C50.2305158,78.6044383 47.6064758,77.7958169 45.3659739,76.1769762 L11.9438222,52.0333965 L11.9438222,86.0945731 C11.9438222,90.3310458 15.3780866,93.7652895 19.6145848,93.7652895 L86.0945269,93.7652895 C90.3310252,93.7652895 93.7652895,90.3310458 93.7652895,86.0945731 L93.7652895,52.0333965 L60.3431378,76.1769762 C58.1026359,77.7942188 55.4785959,78.6044383 52.8545559,78.6044383 Z M90.8264286,37.9847992 C89.4121317,36.8757414 88.0713463,35.8322044 86.0945269,34.3396108 L86.0945269,27.285748 C86.0945269,23.0492753 82.6602626,19.6150316 78.4237644,19.6150316 L66.0306886,19.6150316 C65.5448737,19.2634571 65.0926183,18.9342556 64.5860283,18.5667004 C61.8996634,16.6058735 56.5620911,11.888383 52.8545559,11.9443153 C49.1470206,11.888383 43.8110464,16.6058735 41.1230834,18.5667004 C40.6164934,18.9342556 40.1642381,19.2634571 39.6784231,19.6150316 L27.2853473,19.6150316 C23.0488491,19.6150316 19.6145848,23.0492753 19.6145848,27.285748 L19.6145848,34.3396108 C17.6377654,35.8306063 16.29698,36.8757414 14.8826831,37.9847992 C13.0278027,39.4384384 11.9438222,41.6640848 11.9438222,44.0206941 L11.9438222,45.7226343 L27.2853473,56.8052213 L27.2853473,27.285748 L78.4237644,27.285748 L78.4237644,56.8052213 L93.7652895,45.7226343 L93.7652895,44.0206941 C93.7652895,41.6651449 92.6817943,39.4390391 90.8264286,37.9847992 Z" id="Shape" fill="#000000" fill-rule="nonzero" transform="translate(52.854556, 52.854556) rotate(21.000000) translate(-52.854556, -52.854556) "></path>
                    </g>
                </g>
                <g filter="url(#filter-2)" id="envelope-solid">
                    <g transform="translate(0.000000, 208.633900)">
                        <path d="M80.4464844,20.5088088 C81.0710938,20.0163608 82,20.4770379 82,21.2554233 L82,53.7411004 C82,57.9507358 78.5566406,61.3661004 74.3125,61.3661004 L7.6875,61.3661004 C3.44335938,61.3661004 0,57.9507358 0,53.7411004 L0,21.2713088 C0,20.4770379 0.912890625,20.0322463 1.55351562,20.5246942 C5.14101562,23.2887567 9.89765625,26.7994338 26.2335937,38.5705275 C29.6128906,41.0168817 35.3144531,46.1637567 41,46.1319858 C46.7175781,46.1796421 52.53125,40.9215692 55.7824219,38.5705275 C72.1183594,26.7994338 76.8589844,23.2728713 80.4464844,20.5088088 Z M41,41.0327671 C44.715625,41.0963088 50.0648438,36.3942254 52.7554687,34.4562046 C74.0082031,19.1585483 75.6257812,17.8241733 80.5265625,14.0116733 C81.4554687,13.2968296 82,12.1848504 82,11.0093296 L82,7.99110042 C82,3.781465 78.5566406,0.366100421 74.3125,0.366100421 L7.6875,0.366100421 C3.44335938,0.366100421 0,3.781465 0,7.99110042 L0,11.0093296 C0,12.1848504 0.54453125,13.2809442 1.4734375,14.0116733 C6.37421875,17.8082879 7.99179688,19.1585483 29.2445312,34.4562046 C31.9351562,36.3942254 37.284375,41.0963088 41,41.0327671 Z" id="Shape" fill="#000000" fill-rule="nonzero"></path>
                    </g>
                </g>
                <g filter="url(#filter-3)" id="check-circle-solid">
                    <g transform="translate(39.955869, 66.491467)">
                        <path d="M193.044131,97.0085329 C193.044131,150.30416 149.839758,193.508533 96.5441313,193.508533 C43.2485042,193.508533 0.0441312553,150.30416 0.0441312553,97.0085329 C0.0441312553,43.7129059 43.2485042,0.50853294 96.5441313,0.50853294 C149.839758,0.50853294 193.044131,43.7129059 193.044131,97.0085329 Z M85.3820385,148.104505 L156.978813,76.5077305 C159.40999,74.0765531 159.40999,70.1344503 156.978813,67.7032729 L148.174355,58.8988152 C145.743178,56.4672487 141.801075,56.4672487 139.369508,58.8988152 L80.9796151,117.288319 L53.7187542,90.0274583 C51.2875768,87.5962809 47.345474,87.5962809 44.9139075,90.0274583 L36.1094498,98.831916 C33.6782724,101.263093 33.6782724,105.205196 36.1094498,107.636374 L76.5771917,148.104116 C79.0087583,150.535682 82.950472,150.535682 85.3820385,148.104505 L85.3820385,148.104505 Z" id="Shape" fill="#000000" fill-rule="nonzero"></path>
                    </g>
                </g>
            </g>
        </g>
    </g>
</svg>