<svg width="39" height="9" viewBox="0 0 39 9" fill="none" xmlns="http://www.w3.org/2000/svg">
<path fill-rule="evenodd" clip-rule="evenodd" d="M23.7501 4.5C23.7501 6.84721 21.8473 8.75 19.5001 8.75C17.1529 8.75 15.2501 6.84721 15.2501 4.5C15.2501 2.15279 17.1529 0.25 19.5001 0.25C21.8473 0.25 23.7501 2.15279 23.7501 4.5ZM8.875 4.50006C8.875 6.84727 6.97221 8.75006 4.625 8.75006C2.27779 8.75006 0.375 6.84727 0.375 4.50006C0.375 2.15285 2.27779 0.250064 4.625 0.250064C6.97221 0.250064 8.875 2.15285 8.875 4.50006ZM34.3749 8.75C36.7221 8.75 38.6249 6.84721 38.6249 4.5C38.6249 2.15279 36.7221 0.25 34.3749 0.25C32.0277 0.25 30.1249 2.15279 30.1249 4.5C30.1249 6.84721 32.0277 8.75 34.3749 8.75Z" fill="url(#paint0_linear)"/>
<defs>
<linearGradient id="paint0_linear" x1="2" y1="0.999998" x2="40.5" y2="9" gradientUnits="userSpaceOnUse">
<stop stop-color="#58AED2"/>
<stop offset="0.438428" stop-color="#4A85D1"/>
<stop offset="0.495056" stop-color="#545DD5"/>
<stop offset="0.984375" stop-color="#6245D8"/>
</linearGradient>
</defs>
</svg>
