<svg width="40" height="40" viewBox="0 0 40 40" fill="none" xmlns="http://www.w3.org/2000/svg">
<path fill-rule="evenodd" clip-rule="evenodd" d="M18.1168 21.8714C18.1168 21.8714 4.45004 22.2329 1.81168 21.8714C0.556559 21.6994 0 20.1905 0 20.0597C0 19.9278 0.535656 18.4218 1.81168 18.248C4.46142 17.8872 18.1168 18.248 18.1168 18.248C18.1168 18.248 17.7896 5.21491 18.1168 1.94289C18.2766 0.344596 19.9285 0.131215 19.9285 0.131215C19.9677 -0.26081 21.5478 0.192243 21.7402 1.94289C22.041 4.68126 21.7402 18.248 21.7402 18.248C21.7402 18.248 35.448 17.8823 38.0453 18.248C39.2289 18.4147 39.857 19.9305 39.857 20.0597C39.857 20.1929 39.3043 21.6983 38.0453 21.8714C35.4048 22.2344 21.7402 21.8714 21.7402 21.8714C21.7402 21.8714 22.0552 35.2464 21.7402 38.1765C21.6975 38.5735 20.7838 39.8577 19.9285 39.9882C19.047 40.1227 18.2223 39.0843 18.1168 38.1765C17.803 35.4761 18.1168 21.8714 18.1168 21.8714Z" fill="url(#paint0_linear)"/>
<defs>
<linearGradient id="paint0_linear" x1="-2.56983" y1="21.8024" x2="22.105" y2="48.4367" gradientUnits="userSpaceOnUse">
<stop stop-color="#2CB0D6"/>
<stop offset="0.505208" stop-color="#515DDD"/>
<stop offset="1" stop-color="#6743E0"/>
</linearGradient>
</defs>
</svg>
